{"title":"Suffragette.2015.DVDScr.XVID.AC3.HQ.Hive-CM8","uid":13099364,"size":1434329332,"categoryP":"video","categoryS":"movies","magnet":"?xt=urn:btih:af4413c3c7c6fb9b194a592e235117cd5fae9984&amp;dn=Suffragette.2015.DVDScr.XVID.AC3.HQ.Hive-CM8&amp;tr=udp%3A%2F%2Ftracker.leechers-paradise.org%3A6969&amp;tr=udp%3A%2F%2Fzer0day.ch%3A1337&amp;tr=udp%3A%2F%2Fopen.demonii.com%3A1337&amp;tr=udp%3A%2F%2Ftracker.coppersurfer.tk%3A6969&amp;tr=udp%3A%2F%2Fexodus.desync.com%3A6969","seeders":0,"leechers":0,"uploader":"TvTeam","files":4,"time":1451203393,"description":"------------------------------------------------------------------------\r\n\r  https://www.torrenting.com\r\n\r\nSign up is OPEN - for time being. Come and have fun.\r\n\r\n------------------------------------------------------------------------[center][img]http://img633.imageshack.us/img633/2545/8l61n1.jpg[/img]\r\n\r\n \r\n[color=blue][size=4][b]Suffragette.2015.DVDScr.XVID.AC3.HQ.Hive-CM8[/b][/size][/color]\r\n\r\nThx Hive\r\n\r\nCM8 Doing It Right The First Time \r\n\r\nSource: DVD-Screener Big THX m8\r\n\r\nNotes:\r\n\r\nDVDScreener 14\r\n\r\nEncode:\r\n\r\nquality was nice on this.\r\nAll digital watermarks are removed.\r\nFixed brightness,contrast and rgb, and added sharpness.\r\n\r\ngot very nice\r\nenjoy\r\n\r\nVideo: 720x304 @bitrate 1500 2pass\r\nAudio: English AC3 2.0 Stereo\r\nSample: yes included\r\n\r\nps: i forgot to mention, plz support the producers and go to the cinema and watch them on a big screen too\r\nthx\r\n\r\n \nhttp://www.imdb.com/title/tt3077214/\r\n\r\n\r\n\r\nGeneral\r\nComplete name                  : Suffragette.2015.DVDScr.XVID.AC3.HQ.Hive-CM8.avi\r\nFormat                         : AVI\r\nFormat/Info                    : Audio Video Interleave\r\nFile size                      : 1.32 GiB\r\nDuration                       : 1h 46mn\r\nOverall bit rate               : 1 773 Kbps\r\nWriting application            : Nandub v1.0rc2\r\nWriting library                : Nandub build 1853/release\r\n\r\nVideo\r\nID                             : 0\r\nFormat                         : MPEG-4 Visual\r\nFormat profile                 : Advanced   \r\nFormat settings, BVOP          : 2\r\nFormat settings, QPel          : Yes\r\nFormat settings, GMC           : No warppoints\r\nFormat settings, Matrix        : Default (H.263)\r\nMuxing mode                    : Packed bitstream\r\nCodec ID                       : XVID\r\nCodec ID/Hint                  : XviD\r\nDuration                       : 1h 46mn\r\nBit rate                       : 1 505 Kbps\r\nWidth                          : 720 pixels\r\nHeight                         : 304 pixels\r\nDisplay aspect ratio           : 2.35:1\r\nFrame rate                     : 29.970 fps\r\nColor space                    : YUV\r\nChroma subsampling             : 4:2:0\r\nBit depth                      : 8 bits\r\nScan type                      : Progressive\r\nCompression mode               : Lossy\r\nBits/(Pixel*Frame)             : 0.229\r\nStream size                    : 1.12 GiB (85%)\r\nWriting library                : XviD 1.2.1 (UTC 2008-12-04)\r\n\r\nAudio\r\nID                             : 1\r\nFormat                         : AC-3\r\nFormat/Info                    : Audio Coding 3\r\nMode extension                 : CM (complete main)\r\nFormat settings, Endianness    : Big\r\nCodec ID                       : 2000\r\nDuration                       : 1h 46mn\r\nBit rate mode                  : Constant\r\nBit rate                       : 256 Kbps\r\nChannel(s)                     : 2 channels\r\nChannel positions              : Front: L R\r\nSampling rate                  : 48.0 KHz\r\nBit depth                      : 16 bits\r\nCompression mode               : Lossy\r\nStream size                    : 195 MiB (14%)\r\nAlignment                      : Split accross interleaves\r\nInterleave, duration           : 33 ms (1.00 video frame)\r\nInterleave, preload duration   : 500 ms\r\n\r\n\r\n\r\nScreens \r\n\r\n[img]http://img910.imageshack.us/img910/9544/91rsQt.png[/img]\r\n[img]http://img911.imageshack.us/img911/4334/dmhLzo.png[/img]\r\n[img]http://img633.imageshack.us/img633/467/sY19n8.png[/img]\r\n[img]http://img903.imageshack.us/img903/5880/siiCy6.png[/img]\r\n\r\nThe foot soldiers of the early feminist movement, women who were forced underground to pursue \r\na dangerous game of cat and mouse with an increasingly brutal State.\r\n\r\n\r\nCast\r\n\r\nAnne-Marie Duff      ... Violet Miller\r\nGrace Stottor \t     ... Maggie Miller\r\nGeoff Bell \t     ... Norman Taylor\r\nCarey Mulligan \t     ... Maud Watts \r\nHelena Bonham Carter ... Edith Ellyn \r\nMeryl Streep \t     ... Emmeline Pankhurst \r\n\r\n\r\nSugarB,iNCOMiNG,Izzy,MenaceIISociety,jiinx,SiMPLE,CherryBomb,bigguy79\r\nranbailey,ViSiON,UnKnOwN,YanKeeS,COPYxRIGHT,THC,VAiN,ACAB,DRs\r\nLKRG,Kingstoner,SiMPLE,TiTAN,cadance,PLAYNOW\r\nUnevano,BigVik,Rapeseed,SAFC,goldadvance,KaN1vE,Pinnz,Wayne,HiGH\r\nSeeN,jtr,Limey,ICONiK,TED,rkofan,mrtoke09\r\nMr Hive\r\n\r\nWONDER WHERE ALL THE OLD DDD FOLKS ARE DONT BE SCARED MESSAGE ME \r\n\r\n\r\n\r\n\r\nLOOKING FOR ANYTHING YOU WANT TO LOOK AND SOUND BETTER\r\n\r\nCOME FIND US WE DONT BITE \r\n\r\n  [/center]","torrent":{"xt":"urn:btih:af4413c3c7c6fb9b194a592e235117cd5fae9984","amp;dn":"Suffragette.2015.DVDScr.XVID.AC3.HQ.Hive-CM8","amp;tr":["udp%3A%2F%2Ftracker.leechers-paradise.org%3A6969","udp%3A%2F%2Fzer0day.ch%3A1337","udp%3A%2F%2Fopen.demonii.com%3A1337","udp%3A%2F%2Ftracker.coppersurfer.tk%3A6969","udp%3A%2F%2Fexodus.desync.com%3A6969"],"infoHash":"af4413c3c7c6fb9b194a592e235117cd5fae9984","infoHashBuffer":{"type":"Buffer","data":[175,68,19,195,199,198,251,155,25,74,89,46,35,81,23,205,95,174,153,132]},"announce":[],"urlList":[]}}